<svg width="180" height="147" viewBox="0 0 180 147" fill="none" xmlns="http://www.w3.org/2000/svg">
<path d="M86.7344 128.592C72.4444 128.592 58.5487 125.373 48.2105 118.875C17.9374 99.8534 16.133 70.2105 16.8831 41.4676C16.9773 38.3987 19.2276 35.527 22.1164 34.7683C34.902 31.4337 46.5518 34.3354 57.7215 43.6321C59.0844 44.7679 59.2773 46.7953 58.1458 48.1583C56.9928 49.5255 54.974 49.7013 53.611 48.574C44.0229 40.5889 34.5334 38.1801 23.7409 40.9833C23.5909 41.0604 23.3208 41.4418 23.3123 41.6433C22.5708 69.6233 24.1995 96.1845 51.618 113.419C70.8971 125.527 105.371 124.863 126.896 111.97C157.563 93.5914 158.883 64.617 156.123 38.6944C156.097 38.5744 155.853 38.3087 155.711 38.2573C142.561 36.4742 131.46 38.9688 121.791 45.8566C120.333 46.8853 118.323 46.5466 117.303 45.0979C116.274 43.6535 116.609 41.6433 118.058 40.6146C129.124 32.7324 141.738 29.8779 156.599 31.8838C159.62 32.2952 162.166 34.9141 162.509 37.9872C165.488 65.9415 163.975 97.2303 130.196 117.474C117.899 124.876 102.096 128.592 86.7344 128.592Z" fill="white" fill-opacity="0.8"/>
<path d="M53.7653 144.459C48.4334 144.459 43.0928 143.671 37.8595 142.089C21.4092 137.113 7.78785 124.477 0.497119 107.414C-0.75015 104.495 0.424254 100.921 3.18453 99.2791L22.5879 87.6336C24.1138 86.7121 26.0811 87.2136 26.9941 88.7395C27.907 90.2568 27.4184 92.2327 25.8882 93.1456L6.48486 104.795C12.9527 120.2 25.091 131.511 39.7111 135.943C53.9668 140.259 69.1355 137.824 82.4697 129.119C83.9527 128.146 85.9543 128.566 86.9144 130.054C87.8873 131.541 87.4673 133.534 85.9843 134.503C75.899 141.086 64.8407 144.459 53.7653 144.459Z" fill="white" fill-opacity="0.8"/>
<path d="M123.835 146.555C112.648 146.555 101.14 142.505 89.5375 134.447C88.0802 133.435 87.7116 131.429 88.7317 129.972C89.7475 128.511 91.7449 128.151 93.2107 129.166C106.313 138.266 119.086 141.725 131.16 139.445C145.969 136.659 160.19 125.309 173.435 105.721L154.014 94.5858C152.488 93.6942 151.961 91.7269 152.857 90.1967C153.753 88.6666 155.711 88.1394 157.25 89.0352L177.043 100.582C178.466 101.405 179.487 102.789 179.847 104.367C180.215 105.961 179.915 107.594 178.994 108.97C164.678 130.251 148.991 142.629 132.339 145.758C129.536 146.29 126.698 146.555 123.835 146.555Z" fill="white" fill-opacity="0.8"/>
<path d="M84.2313 127.876C83.2797 127.876 82.3497 127.456 81.7196 126.668C80.4637 125.103 79.1993 123.552 77.9306 122C75.3332 118.798 72.7144 115.596 70.2456 112.292C57.6872 95.4987 42.6857 69.649 57.4257 39.1745C61.7976 30.1436 67.9825 21.927 74.5317 13.2262C77.142 9.75438 79.8465 6.16687 82.5897 2.33506C83.6141 0.890625 85.1614 0.0376853 86.8115 0.00768231C88.4274 -0.090899 90.0433 0.766351 91.132 2.17221L117.878 37.0357C119.241 38.8102 120.265 41.7634 120.312 44.0479C120.381 48.064 120.574 51.8744 120.758 55.539C121.251 65.0928 121.726 74.1152 119.545 82.4646C117.007 92.2841 112.091 101.456 107.329 110.325C105.285 114.122 103.253 117.915 101.402 121.769C100.63 123.367 98.7056 124.04 97.1068 123.273C95.5081 122.506 94.8395 120.581 95.6024 118.983C97.5012 115.031 99.6185 111.096 101.654 107.286C106.442 98.3619 110.964 89.9225 113.321 80.8487C115.242 73.4594 114.821 65.3114 114.329 55.8734C114.136 52.1444 113.934 48.2526 113.874 44.1764C113.857 43.2764 113.291 41.6433 112.768 40.9575L86.9358 7.29418C84.4584 10.7231 82.0239 13.9677 79.6537 17.1009C73.023 25.9089 67.2967 33.5125 63.1949 41.9862C53.1481 62.7783 57.0185 83.8919 75.3847 108.447C77.802 111.679 80.3566 114.812 82.9111 117.945C84.197 119.514 85.47 121.083 86.7344 122.669C87.8402 124.053 87.613 126.08 86.2243 127.186C85.6457 127.649 84.9342 127.876 84.2313 127.876Z" fill="white" fill-opacity="0.8"/>
</svg>
